<svg xmlns="http://www.w3.org/2000/svg" width="512" viewBox="0 0 384 384" height="512" version="1.2"><defs><clipPath id="a"><path d="M204.008 3.969H379.87v173.824H204.008Zm0 0"/></clipPath><clipPath id="b"><path d="M241.508 3.969h100.785a37.5 37.5 0 0 1 26.516 10.984 37.5 37.5 0 0 1 10.984 26.516v98.824a37.503 37.503 0 0 1-37.5 37.5H241.508a37.5 37.5 0 0 1-26.516-10.984 37.5 37.5 0 0 1-10.984-26.516V41.469a37.503 37.503 0 0 1 37.5-37.5m0 0"/></clipPath><clipPath id="d"><path d="M.008.969H175.87v173.824H.008Zm0 0"/></clipPath><clipPath id="e"><path d="M37.508.969h100.785a37.5 37.5 0 0 1 26.516 10.984 37.5 37.5 0 0 1 10.984 26.516v98.824a37.503 37.503 0 0 1-37.5 37.5H37.508a37.5 37.5 0 0 1-26.516-10.984A37.5 37.5 0 0 1 .008 137.293V38.469a37.503 37.503 0 0 1 37.5-37.5m0 0"/></clipPath><clipPath id="c"><path d="M0 0h176v175H0z"/></clipPath><clipPath id="f"><path d="M4.207 204.309h175.785v175.785H4.207Zm0 0"/></clipPath><clipPath id="g"><path d="M41.707 204.309h100.785a37.503 37.503 0 0 1 37.5 37.5v100.785a37.503 37.503 0 0 1-37.5 37.5H41.707a37.5 37.5 0 0 1-26.516-10.985 37.5 37.5 0 0 1-10.984-26.515V241.809a37.503 37.503 0 0 1 37.5-37.5m0 0"/></clipPath><clipPath id="i"><path d="M.207.309h175.785v175.785H.207Zm0 0"/></clipPath><clipPath id="j"><path d="M37.707.309h100.785a37.503 37.503 0 0 1 37.5 37.5v100.785a37.503 37.503 0 0 1-37.5 37.5H37.707a37.5 37.5 0 0 1-26.516-10.985A37.5 37.5 0 0 1 .207 138.594V37.809a37.503 37.503 0 0 1 37.5-37.5m0 0"/></clipPath><clipPath id="h"><path d="M0 0h176v177H0z"/></clipPath><clipPath id="k"><path d="M3.371 3.172h175.414v175.414H3.371Zm0 0"/></clipPath><clipPath id="l"><path d="M40.871 3.172h100.414c9.945 0 19.485 3.95 26.516 10.984a37.5 37.5 0 0 1 10.984 26.516v100.414c0 9.945-3.95 19.484-10.984 26.516a37.5 37.5 0 0 1-26.516 10.984H40.871a37.5 37.5 0 0 1-26.516-10.984 37.5 37.5 0 0 1-10.984-26.516V40.672c0-9.945 3.95-19.484 10.984-26.516A37.5 37.5 0 0 1 40.871 3.172m0 0"/></clipPath><clipPath id="n"><path d="M.371.172h175.414v175.414H.371Zm0 0"/></clipPath><clipPath id="o"><path d="M37.871.172h100.414c9.945 0 19.485 3.95 26.516 10.984a37.5 37.5 0 0 1 10.984 26.516v100.414c0 9.945-3.95 19.484-10.984 26.516a37.5 37.5 0 0 1-26.516 10.984H37.871a37.5 37.5 0 0 1-26.516-10.984A37.5 37.5 0 0 1 .371 138.086V37.672c0-9.945 3.95-19.484 10.984-26.516A37.5 37.5 0 0 1 37.871.172m0 0"/></clipPath><clipPath id="m"><path d="M0 0h176v176H0z"/></clipPath><clipPath id="p"><path d="M204.008 202.207h175.785v175.785H204.008Zm0 0"/></clipPath><clipPath id="q"><path d="M241.508 202.207h100.785c9.945 0 19.484 3.95 26.516 10.984a37.5 37.5 0 0 1 10.984 26.516v100.785a37.503 37.503 0 0 1-37.5 37.5H241.508a37.5 37.5 0 0 1-26.516-10.984 37.5 37.5 0 0 1-10.984-26.516V239.707a37.503 37.503 0 0 1 37.5-37.5m0 0"/></clipPath><clipPath id="s"><path d="M.008.207h175.785v175.785H.008Zm0 0"/></clipPath><clipPath id="t"><path d="M37.508.207h100.785c9.945 0 19.484 3.95 26.516 10.984a37.5 37.5 0 0 1 10.984 26.516v100.785a37.503 37.503 0 0 1-37.5 37.5H37.508a37.5 37.5 0 0 1-26.516-10.984A37.5 37.5 0 0 1 .008 138.492V37.707a37.503 37.503 0 0 1 37.5-37.5m0 0"/></clipPath><clipPath id="r"><path d="M0 0h176v176H0z"/></clipPath><clipPath id="u"><path d="M39.71 243.031h102.747v94.5H39.711Zm0 0"/></clipPath><clipPath id="v"><path d="M39.621 38.398h105v105h-105Zm0 0"/></clipPath><clipPath id="w"><path d="M241.422 235.004h101.25V345h-101.25Zm0 0"/></clipPath></defs><g clip-path="url(#a)"><g clip-path="url(#b)"><g clip-path="url(#c)" transform="translate(204 3)"><g clip-path="url(#d)"><g clip-path="url(#e)"><path style="stroke:none;fill-rule:nonzero;fill:#0a0f1f;fill-opacity:1" d="M.008.969H175.87v173.82H.008Zm0 0"/></g></g></g></g></g><g style="fill:#29f3e2;fill-opacity:1"><path style="stroke:none" d="M82.688 0H64.516L57.39-18.625H24.5L17.703 0H0l32.078-82.344h17.61ZM29.563-32.547h22.53L40.704-63.14Zm0 0" transform="translate(234.396 134.218)"/></g><g style="fill:#29f3e2;fill-opacity:1"><path style="stroke:none" d="M24.031-67.734H8.281v-14.61h15.75Zm0 67.734H8.281v-59.562h15.75Zm0 0" transform="translate(317.423 134.218)"/></g><g clip-path="url(#f)"><g clip-path="url(#g)"><g clip-path="url(#h)" transform="translate(4 204)"><g clip-path="url(#i)"><g clip-path="url(#j)"><path style="stroke:none;fill-rule:nonzero;fill:#0a0f1f;fill-opacity:1" d="M.207.309h175.785v175.785H.207Zm0 0"/></g></g></g></g></g><g clip-path="url(#k)"><g clip-path="url(#l)"><g clip-path="url(#m)" transform="translate(3 3)"><g clip-path="url(#n)"><g clip-path="url(#o)"><path style="stroke:none;fill-rule:nonzero;fill:#0a0f1f;fill-opacity:1" d="M.371.172h175.414v175.414H.371Zm0 0"/></g></g></g></g></g><g clip-path="url(#p)"><g clip-path="url(#q)"><g clip-path="url(#r)" transform="translate(204 202)"><g clip-path="url(#s)"><g clip-path="url(#t)"><path style="stroke:none;fill-rule:nonzero;fill:#0a0f1f;fill-opacity:1" d="M.008.207h175.785v175.785H.008Zm0 0"/></g></g></g></g></g><g clip-path="url(#u)"><path style="stroke:none;fill-rule:nonzero;fill:#29f3e2;fill-opacity:1" d="M79.844 262.379q7.889 9.919 11.066 14.207h.406q4.394-5.908 10.985-14.137l15.543-19.418h22.949l-37.922 46.29 39.547 47.84h-22.621l-17.008-21.036a722 722 0 0 1-11.555-14.633h-.324a857 857 0 0 1-11.555 14.633L62.348 337.16H39.727l39.546-47.84-37.921-46.289H64.3z"/></g><g clip-path="url(#v)"><path style="stroke:none;fill-rule:nonzero;fill:#29f3e2;fill-opacity:1" d="M144.574 80.695h-42.297V38.398H81.918v42.297H39.621v20.36h42.297v42.297h20.36v-42.297h42.296Zm0 0"/></g><g clip-path="url(#w)"><path style="stroke:none;fill-rule:nonzero;fill:#29f3e2;fill-opacity:1" d="M342.855 280.625v17.676H241.852v-17.676Zm-50.503 63.758q-5.919 0-10.102-4.102-4.101-4.183-4.102-10.101 0-5.685 4.102-9.785 4.184-4.102 10.102-4.102 5.683 0 9.785 4.102c2.734 2.734 4.105 5.996 4.105 9.785q-.001 5.917-4.105 10.101-4.102 4.102-9.785 4.102m0-81.75q-3.945-.001-7.18-1.895a14.1 14.1 0 0 1-5.129-5.129q-1.894-3.235-1.895-7.18 0-5.683 4.102-9.784 4.184-4.104 10.102-4.106 5.683.002 9.785 4.106c2.734 2.734 4.105 5.996 4.105 9.785q-.001 5.917-4.105 10.101-4.102 4.102-9.785 4.102m0 0"/></g></svg>